<svg width="12" height="15" viewBox="0 0 12 15" fill="none" xmlns="http://www.w3.org/2000/svg">
<path fill-rule="evenodd" clip-rule="evenodd" d="M0.149902 6.07504C0.149902 5.32946 0.754318 4.72504 1.4999 4.72504H10.4999C11.2455 4.72504 11.8499 5.32946 11.8499 6.07504V6.82504C11.8499 7.57063 11.2455 8.17504 10.4999 8.17504H1.4999C0.754319 8.17504 0.149902 7.57063 0.149902 6.82504V6.07504ZM1.4999 5.92504C1.41706 5.92504 1.3499 5.9922 1.3499 6.07504V6.82504C1.3499 6.90788 1.41706 6.97504 1.4999 6.97504H10.4999C10.5827 6.97504 10.6499 6.90789 10.6499 6.82504V6.07504C10.6499 5.9922 10.5827 5.92504 10.4999 5.92504H1.4999Z" fill="#C1AC87"/>
<path fill-rule="evenodd" clip-rule="evenodd" d="M0.899902 6.97504H11.0999V12.825C11.0999 13.5706 10.4955 14.175 9.7499 14.175H2.2499C1.50432 14.175 0.899902 13.5706 0.899902 12.825V6.97504ZM2.0999 8.17504V12.825C2.0999 12.9079 2.16706 12.975 2.2499 12.975H9.7499C9.83275 12.975 9.8999 12.9079 9.8999 12.825V8.17504H2.0999Z" fill="#C1AC87"/>
<path fill-rule="evenodd" clip-rule="evenodd" d="M3.86642 1.09553C5.08112 1.48408 6.12365 2.77004 6.58826 5.09302C6.65325 5.41796 6.44252 5.73405 6.11758 5.79904C5.90365 5.84183 5.69355 5.7651 5.55642 5.61496L5.55642 5.8107C4.35646 5.81069 3.09191 5.49105 2.18551 4.94416C1.73276 4.67098 1.32632 4.31494 1.08592 3.86946C0.832893 3.40059 0.781435 2.85989 1.01286 2.31518C1.45167 1.28232 2.66596 0.711523 3.86642 1.09553ZM5.23505 4.60166C4.32356 4.55084 3.42355 4.28963 2.80544 3.91669C2.45962 3.70804 2.24503 3.49056 2.14196 3.29957C2.05152 3.13198 2.03707 2.97328 2.11731 2.78441C2.30182 2.35012 2.86144 2.03395 3.50081 2.23848C4.0483 2.4136 4.77839 3.03213 5.23505 4.60166Z" fill="#C1AC87"/>
<path fill-rule="evenodd" clip-rule="evenodd" d="M7.8564 1.83688C6.83985 2.27627 5.9016 3.37067 5.42298 5.04585C5.33195 5.36447 5.51644 5.69656 5.83506 5.7876C6.06148 5.85229 6.2947 5.77784 6.44338 5.61501L6.44338 5.81068C7.59875 5.81068 8.75526 5.61833 9.56746 5.18022C9.97704 4.95929 10.3507 4.64756 10.5546 4.21411C10.7686 3.7593 10.7552 3.25696 10.5435 2.75864C10.3212 2.23543 9.9158 1.8686 9.4068 1.71105C8.90931 1.55706 8.36422 1.61739 7.8564 1.83688ZM6.85709 4.60124C7.74469 4.56023 8.50899 4.38772 8.99776 4.12408C9.27589 3.97405 9.4124 3.82312 9.46879 3.70325C9.51513 3.60476 9.539 3.46313 9.43905 3.22787C9.34968 3.01751 9.21122 2.90668 9.05197 2.85739C8.88123 2.80454 8.63375 2.80819 8.3325 2.93839C7.85072 3.14664 7.27645 3.66779 6.85709 4.60124Z" fill="#C1AC87"/>
<path fill-rule="evenodd" clip-rule="evenodd" d="M5.4749 13.575V7.57504H6.5249V13.575H5.4749Z" fill="#C1AC87"/>
</svg>
