<?xml version="1.0" encoding="utf-8"?>
<!-- Generator: Adobe Illustrator 24.1.3, SVG Export Plug-In . SVG Version: 6.00 Build 0)  -->
<svg version="1.1" id="Слой_1" xmlns="http://www.w3.org/2000/svg" xmlns:xlink="http://www.w3.org/1999/xlink" x="0px" y="0px"
	 viewBox="0 0 152 152" style="enable-background:new 0 0 152 152;" xml:space="preserve">
<style type="text/css">
	.st0{fill:url(#SVGID_1_);}
	.st1{fill-rule:evenodd;clip-rule:evenodd;fill:#1A2F43;}
	.st2{fill:none;stroke:#1A2F43;stroke-width:2;}
	.st3{fill:none;stroke:#24BDFF;stroke-width:2;}
	.st4{fill:#1A2F43;}
	.st5{fill:none;stroke:#1A2F43;}
</style>
<radialGradient id="SVGID_1_" cx="-525.9619" cy="690.1174" r="1" gradientTransform="matrix(-46.5048 29.365 29.365 46.5048 -44649.1289 -16572.8242)" gradientUnits="userSpaceOnUse">
	<stop  offset="0" style="stop-color:#FFFFFF;stop-opacity:0.75"/>
	<stop  offset="1" style="stop-color:#FFFFFF;stop-opacity:0.2"/>
</radialGradient>
<circle class="st0" cx="75.9" cy="76" r="55"/>
<path class="st1" d="M116.7,45.8l-6.5,8.4l10.4-2.3c-0.5-1-1.1-1.9-1.7-2.9C118.3,47.9,117.5,46.8,116.7,45.8z"/>
<path class="st2" d="M102.6,118.3c-23.3,14.7-54.1,7.7-68.8-15.5C19.1,79.5,26,48.7,49.3,34c23.3-14.7,54.1-7.7,68.8,15.5
	C132.8,72.8,125.9,103.6,102.6,118.3z"/>
<path class="st3" d="M26.9,67.2c1.5-8.4,5.2-16.3,10.7-22.9c5.5-6.6,12.5-11.7,20.5-14.7c8-3.1,16.7-4,25.1-2.8
	c8.5,1.3,16.5,4.7,23.2,9.9"/>
<path class="st4" d="M133.5,34.6l1,1.6l-3.8,7l-1.4,2.4l0,0.1c0.3-0.2,0.5-0.4,0.6-0.5c0.1-0.1,0.4-0.3,1-0.7
	c0.5-0.4,1.1-0.8,1.6-1.1l4.7-3l0.9,1.5l-10,6.3l-1-1.6l3.8-7l1.4-2.4l0-0.1l-0.7,0.5c-0.1,0.1-0.4,0.3-0.9,0.7
	c-0.5,0.4-1,0.7-1.5,1l-4.7,3l-0.9-1.5L133.5,34.6z"/>
<g>
	<path class="st5" d="M76,42.5c5.9,0,10.2,4.7,10.2,12c0,6.2,1.1,9.4,3.5,13.7"/>
	<path class="st5" d="M47.4,93.3c2.9,5.2,9.1,6.7,15.3,3.1c5.3-3.1,8.5-3.7,13.4-3.7"/>
	<path class="st5" d="M104.6,93.3c-2.9,5.2-9.1,6.7-15.3,3.1c-5.3-3.1-8.5-3.7-13.4-3.7"/>
	<path class="st5" d="M104.6,93.3c2.9-5.2,1.2-11.4-5.1-15.1c-5.3-3.1-7.4-5.7-9.8-10"/>
	<path class="st5" d="M76,42.5c-5.9,0-10.2,4.7-10.2,12c0,6.2-1.1,9.4-3.5,13.7"/>
	<path class="st5" d="M47.4,93.3c-2.9-5.2-1.2-11.4,5.1-15.1c5.3-3.1,7.4-5.7,9.8-10"/>
	<path class="st1" d="M76,62.2L64.1,83.4h23.8L76,62.2z M76,64.3L65.8,82.4h20.4L76,64.3z"/>
</g>
</svg>
