<svg width="26" height="25" viewBox="0 0 26 25" fill="none" xmlns="http://www.w3.org/2000/svg">
<path d="M17.2553 9.07571L16.9653 1.69671C16.9523 1.36571 17.2103 1.08671 17.5413 1.07371L24.9203 0.783711C25.4543 0.762711 25.7473 1.39771 25.3843 1.79071L18.2953 9.45971C17.9323 9.85171 17.2763 9.60971 17.2553 9.07571Z" fill="#1a2f43"/>
<path d="M25.4916 11.7279C25.7466 18.2229 20.6856 23.9059 14.2216 24.4199C14.0616 24.4259 13.8916 24.4429 13.7316 24.4489C10.5446 24.5749 7.50856 23.4829 5.11356 21.3549C2.72856 19.2269 1.28356 16.3419 1.04956 13.1689C1.02256 13.0089 1.01656 12.8499 1.01056 12.6899C0.753556 6.1449 5.69856 0.575904 12.1506 0.00290374C12.4896 -0.0310963 12.7806 0.237904 12.7946 0.577904L12.8456 1.8869C12.8586 2.2169 12.6186 2.4759 12.2996 2.5089C7.11556 3.0129 3.17056 7.5709 3.52956 12.8709C3.69956 15.4259 4.85256 17.7729 6.78156 19.4879C8.77356 21.2719 11.3686 22.1299 14.0226 21.9259C19.1706 21.5239 23.1966 16.9919 22.9936 11.8259C22.8816 8.7279 21.3516 5.9459 18.7896 4.1749C18.2236 3.7869 18.0836 3.0119 18.4816 2.4359C18.8696 1.8699 19.6446 1.7299 20.2206 2.1279C23.4206 4.3439 25.3486 7.8409 25.4916 11.7279Z" fill="#1a2f43"/>
<path d="M1.0488 13.1692H1.0388C1.0228 13.0102 1.0158 12.8502 1.0098 12.6902C1.0158 12.8502 1.0228 13.0102 1.0488 13.1692Z" fill="#1a2f43"/>
</svg>
