<svg width="380" height="205" viewBox="0 0 380 205" fill="none" xmlns="http://www.w3.org/2000/svg">
<path opacity="0.3" d="M45 128H75" stroke="white" stroke-width="2"/>
<path opacity="0.3" d="M45 140H75" stroke="white" stroke-width="2"/>
<path opacity="0.3" d="M45 152H75" stroke="white" stroke-width="2"/>
<path opacity="0.3" d="M45 164H75" stroke="white" stroke-width="2"/>
<path opacity="0.3" d="M45 176H75" stroke="white" stroke-width="2"/>
<path opacity="0.3" d="M45 188H75" stroke="white" stroke-width="2"/>
<path opacity="0.3" d="M304 146H334" stroke="white" stroke-width="2"/>
<path opacity="0.3" d="M304 160H334" stroke="white" stroke-width="2"/>
<path opacity="0.3" d="M304 174H334" stroke="white" stroke-width="2"/>
<path opacity="0.3" d="M304 188H334" stroke="white" stroke-width="2"/>
<path opacity="0.3" d="M228 60H241" stroke="white" stroke-width="2"/>
<path opacity="0.3" d="M228 74H241" stroke="white" stroke-width="2"/>
<path opacity="0.3" d="M228 88H241" stroke="white" stroke-width="2"/>
<path opacity="0.3" d="M228 102H241" stroke="white" stroke-width="2"/>
<path opacity="0.3" d="M228 116H241" stroke="white" stroke-width="2"/>
<path opacity="0.3" d="M228 130H241" stroke="white" stroke-width="2"/>
<path opacity="0.3" d="M228 144H241" stroke="white" stroke-width="2"/>
<path opacity="0.3" d="M228 158H241" stroke="white" stroke-width="2"/>
<path opacity="0.3" d="M228 172H242" stroke="white" stroke-width="2"/>
<path opacity="0.3" d="M228 186H253" stroke="white" stroke-width="2"/>
<path opacity="0.3" d="M160 100H172" stroke="white" stroke-width="2"/>
<path opacity="0.3" d="M160 114H172" stroke="white" stroke-width="2"/>
<path opacity="0.3" d="M160 128H172" stroke="white" stroke-width="2"/>
<path opacity="0.3" d="M160 142H172" stroke="white" stroke-width="2"/>
<path opacity="0.3" d="M178 100H188" stroke="white" stroke-width="2"/>
<path opacity="0.3" d="M178 114H188" stroke="white" stroke-width="2"/>
<path opacity="0.3" d="M178 128H188" stroke="white" stroke-width="2"/>
<path opacity="0.3" d="M178 142H188" stroke="white" stroke-width="2"/>
<path opacity="0.3" d="M160 156H172" stroke="white" stroke-width="2"/>
<path opacity="0.3" d="M160 170H172" stroke="white" stroke-width="2"/>
<path opacity="0.3" d="M160 184H172" stroke="white" stroke-width="2"/>
<path opacity="0.3" d="M178 156H188" stroke="white" stroke-width="2"/>
<path opacity="0.3" d="M178 170H188" stroke="white" stroke-width="2"/>
<path opacity="0.3" d="M94 148V204" stroke="white" stroke-width="2"/>
<path opacity="0.3" d="M218 59V185" stroke="white" stroke-width="2"/>
<path opacity="0.3" d="M204 59V205" stroke="white" stroke-width="2"/>
<path opacity="0.3" d="M106 190V204" stroke="white" stroke-width="2"/>
<path opacity="0.3" d="M106 148V178" stroke="white" stroke-width="2"/>
<path opacity="0.3" d="M278 184V204" stroke="white" stroke-width="2"/>
<path opacity="0.3" d="M266 165V204" stroke="white" stroke-width="2"/>
<path opacity="0.3" d="M254 178V204" stroke="white" stroke-width="2"/>
<path opacity="0.3" d="M278 165V175" stroke="white" stroke-width="2"/>
<path opacity="0.3" d="M118 148V204" stroke="white" stroke-width="2"/>
<path opacity="0.3" d="M0 204H44V116H88V140H132V204H150V88H190.2L190 48H242V164H292V134H346V204H380" stroke="white" stroke-width="2"/>
<path d="M0 204H44V116H88V140H132V204H150V88H190.2L190 48H242V164H292V134H346V204H380" stroke="white" stroke-width="2"/>
</svg>
